<!DOCTYPE svg PUBLIC "-//W3C//DTD SVG 20010904//EN" "http://www.w3.org/TR/2001/REC-SVG-20010904/DTD/svg10.dtd">
<svg version="1.0" xmlns="http://www.w3.org/2000/svg" width="573px" height="151px" viewBox="0 0 5730 1510" preserveAspectRatio="xMidYMid meet">
<g id="layer101" fill="#fefe12" stroke="none">
 <path d="M2363 1206 c-23 -8 -58 -24 -79 -37 -26 -16 -39 -19 -42 -11 -8 24 -80 52 -132 52 -57 0 -123 -28 -134 -57 -7 -17 -8 -17 -17 0 -16 28 -84 57 -134 57 -58 0 -120 -31 -140 -70 -8 -16 -15 -51 -16 -77 0 -43 -1 -46 -11 -23 -6 14 -21 49 -34 77 -30 68 -68 93 -147 93 -63 0 -129 -26 -142 -57 -4 -10 -18 -45 -31 -78 l-23 -60 0 52 c-1 69 -17 101 -63 124 -76 39 -199 14 -226 -46 -9 -18 -12 -123 -12 -366 0 -317 1 -342 19 -378 29 -56 102 -86 193 -78 142 12 174 43 244 240 21 59 41 107 45 107 3 0 23 -46 44 -102 57 -156 78 -191 133 -217 90 -44 209 -38 271 15 l30 25 16 -30 c34 -66 145 -91 219 -48 73 41 100 131 63 204 -14 26 -15 37 -5 58 14 31 19 31 47 1 12 -13 50 -36 83 -51 54 -24 70 -27 142 -23 94 5 156 32 185 78 l18 30 27 -29 c16 -16 55 -41 88 -56 54 -24 70 -27 142 -23 103 5 161 34 191 93 11 22 21 42 22 44 1 2 17 -14 35 -34 19 -22 63 -52 103 -72 110 -53 224 -46 322 20 26 17 59 49 73 71 22 34 26 36 35 20 48 -83 152 -144 248 -144 l57 0 0 -65 c0 -40 6 -78 16 -96 18 -35 82 -68 132 -69 49 0 127 37 141 66 7 17 11 144 11 405 0 417 -1 423 -60 454 -35 18 -109 20 -145 3 -21 -9 -36 -8 -79 5 -29 9 -72 17 -95 17 -59 0 -163 -51 -198 -96 l-27 -36 -17 35 c-13 25 -33 41 -81 63 -57 26 -73 29 -173 29 -104 0 -114 -2 -177 -33 -41 -20 -78 -47 -94 -68 l-27 -34 -34 39 c-18 22 -59 52 -91 68 -50 24 -69 28 -147 28 -96 0 -160 -20 -204 -64 l-21 -21 -42 30 c-77 56 -200 75 -295 46z m-75 -305 c-7 -9 -14 -18 -15 -20 -2 -2 -3 8 -3 22 0 20 4 25 15 21 13 -5 13 -9 3 -23z m1770 17 c17 -17 15 -113 -3 -128 -12 -10 -16 -8 -25 15 -17 44 -11 125 9 125 4 0 12 -5 19 -12z"/>
 <path d="M4550 1214 c-65 -22 -93 -41 -111 -75 -23 -47 -25 -119 -3 -161 13 -25 14 -38 6 -62 -6 -17 -14 -145 -17 -284 -8 -286 -6 -301 56 -333 52 -26 152 -26 196 1 61 37 63 48 54 337 -5 147 -13 268 -19 278 -8 15 -6 28 9 57 25 48 24 109 -2 159 -28 56 -118 99 -169 83z"/>
 </g>
<g id="layer102" fill="#fdfdca" stroke="none">
 <path d="M2360 1201 c-30 -9 -68 -26 -83 -36 -25 -16 -29 -16 -40 -2 -18 24 -80 47 -126 47 -52 0 -118 -27 -132 -53 -11 -19 -12 -19 -21 -3 -14 26 -86 56 -133 56 -51 0 -119 -31 -136 -62 -8 -12 -16 -48 -19 -78 l-5 -55 -18 50 c-38 109 -80 145 -171 145 -99 0 -136 -30 -177 -144 l-18 -51 0 53 c-1 71 -21 106 -71 126 -51 20 -109 20 -160 0 -70 -28 -70 -29 -70 -414 0 -320 1 -343 20 -380 16 -32 30 -42 77 -60 65 -25 132 -23 216 6 62 21 83 53 138 205 24 65 46 119 50 119 3 0 25 -52 49 -115 53 -144 72 -174 135 -205 93 -47 252 -26 279 37 9 20 11 19 28 -18 20 -45 79 -79 138 -79 70 0 149 55 155 108 1 10 6 25 10 35 4 9 2 23 -4 31 -6 7 -8 15 -5 18 3 4 -2 20 -11 37 -14 29 -11 54 11 80 2 2 19 -10 38 -27 19 -16 61 -40 93 -52 108 -41 271 -10 310 59 l17 29 37 -33 c57 -51 139 -78 225 -73 96 6 162 38 189 93 11 22 21 42 22 43 1 2 17 -14 37 -36 47 -52 142 -95 222 -100 118 -8 237 49 280 135 l21 41 12 -33 c27 -76 158 -150 254 -143 l47 3 0 -70 c0 -96 20 -128 94 -151 53 -17 59 -17 111 0 99 31 95 10 95 453 0 427 -1 432 -65 459 -42 17 -100 17 -140 0 -26 -11 -38 -10 -84 6 -30 10 -69 18 -87 18 -56 0 -146 -41 -190 -87 l-42 -43 -12 31 c-15 35 -62 62 -147 84 -84 22 -166 19 -246 -9 -81 -29 -128 -63 -150 -108 -12 -23 -17 -27 -17 -14 0 11 -20 39 -45 62 -49 48 -144 84 -220 84 -60 0 -167 -35 -199 -65 l-27 -25 -34 26 c-44 33 -143 64 -203 63 -26 0 -72 -8 -102 -18z m244 -66 c73 -35 114 -117 101 -203 -9 -60 -69 -120 -152 -151 -34 -13 -67 -29 -74 -37 -28 -34 33 -46 98 -19 75 31 103 16 103 -57 0 -64 -27 -92 -105 -108 -128 -27 -250 22 -284 113 -15 40 -14 113 3 145 24 45 69 81 142 112 50 21 70 34 72 49 5 32 -50 32 -141 -1 -66 -24 -81 -18 -90 37 -9 58 8 101 50 120 74 35 202 35 277 0z m460 0 c73 -35 114 -117 101 -203 -9 -60 -69 -120 -152 -151 -34 -13 -67 -29 -74 -37 -28 -34 33 -46 98 -19 75 31 103 16 103 -57 0 -64 -27 -92 -105 -108 -128 -27 -250 22 -284 113 -15 40 -14 113 3 145 24 45 69 81 142 112 50 21 70 34 72 49 5 32 -50 32 -141 -1 -66 -24 -81 -18 -90 37 -9 58 8 101 50 120 74 35 202 35 277 0z m592 0 c49 -20 54 -29 54 -91 0 -74 -14 -82 -95 -61 -95 25 -160 23 -190 -8 -14 -13 -25 -31 -25 -40 0 -13 21 -15 148 -15 184 0 188 -3 185 -113 -4 -137 -76 -226 -200 -248 -175 -31 -311 69 -331 244 -19 165 36 294 145 336 77 31 231 29 309 -4z m-2444 -2 c15 -14 18 -41 20 -217 l3 -201 68 200 c38 110 77 209 87 219 15 15 34 20 85 20 57 1 69 -2 84 -21 10 -11 51 -116 92 -232 l74 -211 5 222 5 223 35 12 c36 13 101 8 133 -9 16 -8 17 -36 17 -359 l0 -350 -25 -24 c-22 -23 -32 -25 -108 -25 -133 0 -136 3 -227 243 -41 108 -78 197 -81 197 -3 0 -36 -84 -73 -187 -38 -104 -76 -196 -85 -207 -30 -34 -68 -46 -145 -46 -90 0 -121 12 -136 53 -6 19 -10 154 -10 357 0 299 2 328 18 343 33 29 130 29 164 0z m979 6 c18 -9 19 -26 19 -278 0 -301 3 -290 -74 -298 -58 -7 -112 11 -120 40 -3 12 -6 130 -6 262 0 263 3 279 58 288 35 6 100 -1 123 -14z m1910 1 c35 -18 42 -19 54 -6 32 32 135 27 157 -7 4 -7 8 -182 8 -389 l0 -377 -22 -15 c-34 -24 -133 -21 -158 4 -17 17 -20 33 -20 126 0 97 -1 106 -17 99 -126 -52 -250 -4 -303 117 -32 72 -39 220 -16 302 19 63 72 131 121 152 47 21 149 17 196 -6z m-1813 -239 c-7 -9 -14 -18 -15 -20 -2 -2 -3 8 -3 22 0 20 4 25 15 21 13 -5 13 -9 3 -23z m-91 -385 c33 -38 32 -108 -2 -141 -20 -21 -34 -25 -83 -25 -48 0 -62 4 -79 23 -43 46 -33 138 17 165 41 21 119 10 147 -22z"/>
 <path d="M2387 1100 c-40 -12 -57 -29 -57 -56 0 -24 0 -24 32 -8 17 9 57 19 89 21 54 5 60 4 88 -25 35 -35 40 -73 13 -100 -10 -10 -57 -37 -104 -60 -97 -47 -125 -84 -114 -147 14 -73 75 -115 169 -115 70 0 114 16 121 43 3 11 4 22 3 23 -1 1 -27 -4 -57 -12 -65 -18 -120 -7 -145 29 -36 52 -3 96 108 141 39 17 78 41 93 59 23 27 26 38 22 86 -4 45 -10 59 -36 82 -50 44 -149 62 -225 39z"/>
 <path d="M2847 1100 c-40 -12 -57 -29 -57 -56 0 -24 0 -24 32 -8 17 9 57 19 89 21 54 5 60 4 88 -25 35 -35 40 -73 13 -100 -10 -10 -57 -37 -104 -60 -97 -47 -125 -84 -114 -147 14 -73 75 -115 169 -115 70 0 114 16 121 43 3 11 4 22 3 23 -1 1 -27 -4 -57 -12 -65 -18 -120 -7 -145 29 -36 52 -3 96 108 141 39 17 78 41 93 59 23 27 26 38 22 86 -4 45 -10 59 -36 82 -50 44 -149 62 -225 39z"/>
 <path d="M3404 1101 c-91 -23 -140 -89 -151 -203 -16 -174 72 -288 222 -288 133 0 203 72 205 208 l0 52 -164 0 c-106 0 -167 4 -171 11 -15 23 7 102 34 130 53 52 136 60 259 23 19 -5 22 -3 22 19 0 19 -7 28 -32 37 -42 14 -184 22 -224 11z m194 -306 c1 -17 -8 -50 -20 -75 -18 -36 -31 -48 -63 -58 -52 -17 -104 -3 -138 38 -25 30 -44 100 -32 120 4 7 50 10 128 8 l122 -3 3 -30z"/>
 <path d="M3400 771 c0 -4 9 -20 21 -35 27 -34 81 -36 103 -4 29 41 21 48 -54 48 -38 0 -70 -4 -70 -9z"/>
 <path d="M1092 773 l3 -328 80 -3 c44 -1 86 2 94 7 7 4 52 116 100 247 73 198 91 240 108 242 12 2 23 -4 28 -15 4 -10 43 -112 86 -228 44 -115 87 -220 95 -233 14 -21 21 -23 97 -20 l82 3 3 328 2 327 -45 0 -45 0 0 -300 c0 -290 -1 -300 -19 -300 -11 0 -23 5 -27 11 -4 7 -53 141 -109 298 l-103 286 -48 0 -49 0 -86 -250 c-48 -137 -94 -272 -103 -298 -14 -40 -21 -48 -39 -45 -22 3 -22 3 -25 301 l-2 297 -40 0 -40 0 2 -327z"/>
 <path d="M2070 861 l0 -241 45 0 45 0 -2 238 -3 237 -42 3 -43 3 0 -240z"/>
 <path d="M3923 1092 c-60 -32 -90 -90 -99 -190 -11 -119 21 -216 89 -266 22 -16 43 -21 91 -21 53 0 68 4 100 28 65 50 70 42 76 -118 l5 -140 35 0 35 0 3 358 2 357 -30 0 c-26 0 -30 -3 -30 -29 0 -16 -7 -34 -15 -41 -12 -10 -21 -7 -52 20 -68 60 -147 76 -210 42z m183 -73 c61 -37 74 -67 74 -163 0 -85 -1 -87 -36 -126 -99 -109 -220 -50 -232 112 -5 70 20 150 55 178 34 26 96 26 139 -1z"/>
 <path d="M3994 969 c-16 -17 -19 -37 -19 -109 0 -72 3 -92 19 -109 26 -28 58 -26 95 5 30 25 31 29 31 104 0 75 -1 79 -31 104 -37 31 -69 33 -95 5z m76 -115 c0 -27 -5 -55 -11 -61 -13 -13 -42 -6 -33 8 3 5 2 14 -2 21 -11 18 -9 71 5 96 12 23 13 23 26 5 8 -10 15 -41 15 -69z"/>
 <path d="M2067 483 c-4 -3 -7 -21 -7 -39 0 -27 5 -35 25 -40 57 -14 92 15 74 64 -7 17 -16 22 -47 22 -21 0 -42 -3 -45 -7z"/>
 <path d="M4560 1213 c-85 -27 -101 -36 -120 -74 -24 -47 -26 -119 -4 -161 14 -27 15 -38 5 -65 -7 -19 -11 -81 -10 -153 1 -67 -1 -124 -5 -127 -3 -4 -6 -64 -6 -135 0 -94 4 -137 15 -157 18 -36 79 -61 146 -61 106 0 159 50 159 151 0 31 -3 58 -6 62 -3 3 -5 82 -4 175 0 94 -3 173 -8 176 -5 3 -7 16 -5 30 3 13 0 32 -5 42 -8 14 -5 28 9 56 41 81 11 185 -64 218 -55 23 -79 29 -97 23z m94 -78 c23 -21 26 -32 26 -85 0 -47 -4 -64 -20 -80 -11 -11 -25 -20 -31 -20 -7 0 -1 -11 13 -23 l26 -24 7 -267 c6 -231 5 -270 -7 -283 -19 -18 -85 -28 -132 -19 -63 12 -64 19 -55 310 8 243 10 260 29 281 18 19 19 23 6 28 -28 11 -49 67 -43 116 7 62 41 91 106 91 37 0 54 -6 75 -25z"/>
 <path d="M4552 1099 c-20 -7 -23 -15 -20 -51 3 -42 4 -43 42 -46 45 -4 56 7 56 56 0 26 -5 34 -26 42 -14 6 -26 10 -27 9 -1 0 -12 -4 -25 -10z"/>
 <path d="M4545 878 c-2 -7 -6 -120 -10 -250 l-6 -238 49 0 49 0 -4 158 c-2 86 -6 199 -9 250 l-6 92 -29 0 c-16 0 -31 -6 -34 -12z"/>
 </g>
<g id="layer103" fill="#fefefd" stroke="none">
 <path d="M2438 1213 c18 -2 45 -2 60 0 15 2 0 4 -33 4 -33 0 -45 -2 -27 -4z"/>
 <path d="M2898 1213 c18 -2 45 -2 60 0 15 2 0 4 -33 4 -33 0 -45 -2 -27 -4z"/>
 <path d="M3453 1213 c20 -2 54 -2 75 0 20 2 3 4 -38 4 -41 0 -58 -2 -37 -4z"/>
 <path d="M3973 1213 c15 -2 37 -2 50 0 12 2 0 4 -28 4 -27 0 -38 -2 -22 -4z"/>
 <path d="M1103 1203 c15 -2 39 -2 55 0 15 2 2 4 -28 4 -30 0 -43 -2 -27 -4z"/>
 <path d="M1448 1203 c18 -2 45 -2 60 0 15 2 0 4 -33 4 -33 0 -45 -2 -27 -4z"/>
 <path d="M1803 1203 c15 -2 37 -2 50 0 12 2 0 4 -28 4 -27 0 -38 -2 -22 -4z"/>
 <path d="M2083 1203 c15 -2 39 -2 55 0 15 2 2 4 -28 4 -30 0 -43 -2 -27 -4z"/>
 <path d="M4213 1203 c15 -2 37 -2 50 0 12 2 0 4 -28 4 -27 0 -38 -2 -22 -4z"/>
 <path d="M3120 1157 c0 -2 15 -16 33 -33 l32 -29 -29 33 c-28 30 -36 37 -36 29z"/>
 <path d="M986 1134 c-3 -9 -6 -169 -6 -357 1 -289 3 -346 16 -367 8 -14 12 -16 7 -5 -4 11 -8 183 -8 383 0 199 -1 362 -1 362 -1 0 -5 -7 -8 -16z"/>
 <path d="M1264 1137 c3 -10 6 -48 6 -83 0 -35 4 -64 8 -64 4 0 18 30 31 68 12 37 25 74 28 82 3 8 2 12 -2 8 -4 -4 -18 -35 -31 -70 l-23 -63 -1 55 c0 30 -5 62 -11 70 -9 12 -10 12 -5 -3z"/>
 <path d="M4355 740 c0 -224 3 -403 7 -397 4 7 8 185 8 397 0 212 -4 390 -8 397 -4 6 -7 -173 -7 -397z"/>
 <path d="M4432 1125 c-17 -36 -14 -115 4 -145 9 -15 12 -17 8 -5 -14 36 -16 123 -4 145 6 12 10 24 7 26 -2 2 -9 -7 -15 -21z"/>
 <path d="M1612 1135 c11 -43 53 -145 60 -145 4 0 8 27 8 59 0 33 3 68 6 78 5 15 4 15 -5 3 -6 -8 -11 -37 -12 -65 l-1 -50 -14 35 c-17 42 -45 99 -42 85z"/>
 <path d="M4717 1125 c4 -11 8 -45 8 -75 0 -30 -4 -64 -8 -75 -5 -11 -2 -9 7 5 8 14 15 45 15 70 0 25 -7 56 -15 70 -9 14 -12 16 -7 5z"/>
 <path d="M3740 1124 c0 -5 6 -18 13 -28 12 -17 14 -17 27 1 12 15 12 16 0 5 -12 -10 -16 -8 -27 10 -7 13 -12 18 -13 12z"/>
 <path d="M2401 1099 c-51 -10 -71 -24 -71 -50 0 -23 -2 -23 46 -3 56 24 151 15 175 -15 24 -29 24 -83 1 -104 -10 -9 -52 -32 -93 -51 -94 -42 -119 -71 -119 -138 0 -41 5 -54 28 -78 46 -45 134 -62 215 -39 29 8 37 15 37 33 0 23 -1 23 -37 10 -94 -33 -172 -2 -173 69 0 38 39 72 112 99 100 36 138 87 123 165 -9 50 -53 89 -116 102 -56 12 -66 12 -128 0z"/>
 <path d="M2861 1099 c-51 -10 -71 -24 -71 -50 0 -23 -2 -23 46 -3 56 24 151 15 175 -15 24 -29 24 -83 1 -104 -10 -9 -52 -32 -93 -51 -94 -42 -119 -71 -119 -138 0 -41 5 -54 28 -78 46 -45 134 -62 215 -39 29 8 37 15 37 33 0 23 -1 23 -37 10 -94 -33 -172 -2 -173 69 0 38 39 72 112 99 100 36 138 87 123 165 -9 50 -53 89 -116 102 -56 12 -66 12 -128 0z"/>
 <path d="M3425 1101 c-121 -24 -168 -90 -168 -238 0 -69 4 -90 27 -137 39 -80 94 -111 196 -111 61 0 82 4 113 24 47 29 78 88 84 163 l6 58 -156 0 c-85 0 -162 3 -171 6 -25 10 -21 84 7 125 43 65 136 86 240 55 51 -15 57 -14 50 15 -9 31 -146 55 -228 40z m173 -316 c3 -46 -27 -101 -68 -123 -33 -17 -101 -10 -133 14 -43 32 -74 124 -50 148 4 3 61 5 127 4 l121 -3 3 -40z"/>
 <path d="M3950 1098 c-84 -23 -123 -98 -123 -235 0 -82 4 -99 29 -150 23 -47 38 -62 74 -80 64 -33 108 -30 170 12 75 51 80 44 80 -121 l0 -134 40 0 40 0 0 355 0 355 -30 0 c-28 0 -30 -3 -30 -35 0 -50 -22 -55 -72 -15 -41 33 -99 60 -128 59 -8 -1 -31 -5 -50 -11z m119 -58 c19 -5 52 -26 73 -47 l38 -37 0 -96 c-1 -106 -6 -118 -75 -164 -51 -35 -95 -34 -138 4 -39 34 -57 85 -57 162 0 89 32 157 85 178 27 12 35 12 74 0z"/>
 <path d="M4058 920 c6 -8 12 -37 12 -65 0 -28 -6 -57 -12 -65 -11 -12 -10 -12 5 -1 12 10 17 28 17 66 0 38 -5 56 -17 66 -15 11 -16 11 -5 -1z"/>
 <path d="M1092 773 l3 -328 76 -3 c61 -2 80 1 96 15 12 11 53 108 102 243 45 123 88 231 96 239 13 13 17 13 29 1 8 -8 53 -118 101 -245 47 -126 91 -235 97 -242 7 -9 37 -13 89 -13 l79 0 0 331 0 330 -37 -3 -38 -3 -3 -296 c-2 -303 -5 -322 -40 -300 -9 5 -222 580 -222 598 0 6 -75 3 -86 -5 -6 -4 -54 -135 -108 -292 -54 -157 -104 -291 -111 -299 -12 -12 -17 -12 -29 -1 -14 11 -16 53 -16 306 l0 294 -40 0 -40 0 2 -327z"/>
 <path d="M2070 860 l0 -240 40 0 40 0 0 240 0 240 -40 0 -40 0 0 -240z"/>
 <path d="M4534 1086 c-3 -8 -4 -29 -2 -48 3 -30 6 -33 40 -36 44 -4 63 22 53 69 -6 26 -11 29 -46 29 -25 0 -42 -5 -45 -14z"/>
 <path d="M4441 914 c-8 -25 -11 -80 -9 -154 l4 -115 2 123 c1 68 7 132 13 143 6 11 9 25 7 31 -2 6 -10 -7 -17 -28z"/>
 <path d="M2260 905 c0 -19 4 -35 8 -35 4 0 6 16 4 35 -2 19 -6 35 -8 35 -2 0 -4 -16 -4 -35z"/>
 <path d="M4706 900 c8 -43 14 -51 14 -19 0 13 -5 31 -10 39 -7 11 -8 5 -4 -20z"/>
 <path d="M2743 905 c-9 -24 1 -27 15 -5 8 13 8 20 2 20 -6 0 -13 -7 -17 -15z"/>
 <path d="M4546 838 c-3 -24 -7 -134 -10 -245 l-4 -203 44 0 44 0 0 108 c0 60 -3 170 -7 245 l-6 137 -28 0 c-25 0 -28 -4 -33 -42z"/>
 <path d="M4720 677 l5 -172 3 164 c1 91 -1 168 -5 172 -5 5 -6 -69 -3 -164z"/>
 <path d="M3130 792 c0 -5 7 -13 16 -16 10 -4 14 -1 12 6 -5 15 -28 23 -28 10z"/>
 <path d="M1427 568 c-26 -72 -46 -133 -43 -135 2 -2 23 50 47 117 24 66 46 120 50 120 3 0 25 -51 48 -112 23 -62 46 -120 52 -128 14 -19 13 -18 -46 138 -27 73 -52 132 -55 132 -3 0 -26 -59 -53 -132z"/>
 <path d="M3181 628 c-6 -17 -9 -33 -7 -36 3 -2 8 7 12 22 3 14 10 26 15 26 5 0 9 5 9 10 0 22 -19 8 -29 -22z"/>
 <path d="M4427 633 c-9 -9 -9 -265 1 -280 4 -6 7 56 7 138 0 82 0 149 -1 149 0 0 -4 -3 -7 -7z"/>
 <path d="M3240 595 c19 -19 36 -35 39 -35 3 0 -10 16 -29 35 -19 19 -36 35 -39 35 -3 0 10 -16 29 -35z"/>
 <path d="M2715 609 c-4 -6 -4 -13 -1 -16 3 -4 6 0 6 7 0 8 16 -1 38 -21 l37 -34 -34 38 c-39 42 -38 41 -46 26z"/>
 <path d="M3694 588 l-29 -33 33 29 c17 17 32 31 32 33 0 8 -8 1 -36 -29z"/>
 <path d="M3810 585 c19 -19 36 -35 39 -35 3 0 -10 16 -29 35 -19 19 -36 35 -39 35 -3 0 10 -16 29 -35z"/>
 <path d="M2257 603 c-4 -3 -7 -11 -7 -17 0 -6 5 -4 10 4 8 12 14 10 42 -15 l33 -30 -29 33 c-31 33 -38 37 -49 25z"/>
 <path d="M1970 550 c0 -19 3 -21 12 -12 9 9 9 15 0 24 -9 9 -12 7 -12 -12z"/>
 <path d="M2235 560 c-3 -5 3 -26 14 -47 11 -21 20 -34 21 -30 0 4 -7 21 -15 38 -9 16 -13 34 -10 39 3 6 4 10 1 10 -3 0 -8 -4 -11 -10z"/>
 <path d="M2467 503 c18 -2 50 -2 70 0 21 2 7 4 -32 4 -38 0 -55 -2 -38 -4z"/>
 <path d="M2927 503 c18 -2 50 -2 70 0 21 2 7 4 -32 4 -38 0 -55 -2 -38 -4z"/>
 <path d="M3437 503 c18 -2 50 -2 70 0 21 2 7 4 -32 4 -38 0 -55 -2 -38 -4z"/>
 <path d="M3983 503 c15 -2 39 -2 55 0 15 2 2 4 -28 4 -30 0 -43 -2 -27 -4z"/>
 <path d="M4071 440 c0 -41 3 -80 7 -87 4 -7 6 20 4 60 -4 102 -10 115 -11 27z"/>
 <path d="M4725 425 c0 -40 3 -68 7 -62 10 16 10 125 1 130 -5 3 -8 -28 -8 -68z"/>
 <path d="M2066 475 c-19 -50 11 -82 65 -70 28 6 30 10 27 43 -3 36 -5 37 -44 40 -31 2 -43 -1 -48 -13z"/>
 <path d="M1143 323 c15 -2 37 -2 50 0 12 2 0 4 -28 4 -27 0 -38 -2 -22 -4z"/>
 <path d="M1763 323 c15 -2 37 -2 50 0 12 2 0 4 -28 4 -27 0 -38 -2 -22 -4z"/>
 <path d="M2088 293 c12 -2 32 -2 45 0 12 2 2 4 -23 4 -25 0 -35 -2 -22 -4z"/>
 <path d="M4548 283 c17 -2 47 -2 65 0 17 2 3 4 -33 4 -36 0 -50 -2 -32 -4z"/>
 <path d="M4203 273 c9 -2 25 -2 35 0 9 3 1 5 -18 5 -19 0 -27 -2 -17 -5z"/>
 </g>

</svg>