<!DOCTYPE svg PUBLIC "-//W3C//DTD SVG 20010904//EN" "http://www.w3.org/TR/2001/REC-SVG-20010904/DTD/svg10.dtd">
<svg version="1.0" xmlns="http://www.w3.org/2000/svg" width="59px" height="59px" viewBox="0 0 590 590" preserveAspectRatio="xMidYMid meet">
<g id="layer101" fill="#363636" stroke="none">
 <path d="M0 295 l0 -295 295 0 295 0 0 295 0 295 -295 0 -295 0 0 -295z"/>
 </g>
<g id="layer102" fill="#4d4d4d" stroke="none">
 <path d="M181 570 c-114 -52 -172 -136 -179 -261 -4 -66 -1 -84 20 -130 33 -73 66 -109 130 -144 48 -27 62 -30 143 -30 73 0 98 4 131 22 67 36 101 70 133 135 44 87 44 179 0 266 -34 69 -71 104 -144 138 -66 31 -170 33 -234 4z"/>
 </g>
<g id="layer103" fill="#717171" stroke="none">
 <path d="M196 574 c-35 -11 -66 -32 -106 -72 -86 -87 -110 -182 -74 -302 21 -71 107 -159 178 -183 114 -39 221 -14 307 72 70 70 94 133 86 227 -15 195 -202 318 -391 258z"/>
 </g>
<g id="layer104" fill="#969696" stroke="none">
 <path d="M223 581 c-42 -11 -112 -53 -145 -88 -72 -75 -95 -218 -51 -314 52 -114 146 -174 273 -173 84 0 139 22 198 78 60 55 86 120 86 211 1 88 -16 132 -76 200 -62 71 -192 110 -285 86z"/>
 </g>
<g id="layer105" fill="#bfbfbf" stroke="none">
 <path d="M235 581 c-95 -25 -171 -88 -208 -170 -29 -66 -28 -172 3 -236 52 -108 147 -169 265 -169 167 -1 289 122 289 289 0 116 -61 213 -165 263 -49 24 -139 35 -184 23z"/>
 </g>

</svg>