<!DOCTYPE svg PUBLIC "-//W3C//DTD SVG 20010904//EN" "http://www.w3.org/TR/2001/REC-SVG-20010904/DTD/svg10.dtd">
<svg version="1.0" xmlns="http://www.w3.org/2000/svg" width="249px" height="249px" viewBox="0 0 2490 2490" preserveAspectRatio="xMidYMid meet">
<g id="layer101" fill="#353535" stroke="none">
 <path d="M0 1245 l0 -1245 1245 0 1245 0 0 1245 0 1245 -1245 0 -1245 0 0 -1245z"/>
 </g>
<g id="layer102" fill="#bfbfbf" stroke="none">
 <path d="M1056 2314 c-340 -62 -627 -278 -781 -589 -306 -615 30 -1350 700 -1531 90 -25 117 -27 270 -27 153 -1 180 2 270 26 384 103 675 395 781 782 25 91 28 116 28 270 0 154 -3 179 -28 270 -106 388 -400 682 -784 782 -121 31 -333 39 -456 17z"/>
 </g>

</svg>