<!DOCTYPE svg PUBLIC "-//W3C//DTD SVG 20010904//EN" "http://www.w3.org/TR/2001/REC-SVG-20010904/DTD/svg10.dtd">
<svg version="1.0" xmlns="http://www.w3.org/2000/svg" width="359px" height="151px" viewBox="0 0 3590 1510" preserveAspectRatio="xMidYMid meet">
<g id="layer101" fill="#ff0404" stroke="none">
 <path d="M2975 1397 c-107 -28 -173 -81 -196 -156 l-12 -39 -59 5 c-78 8 -132 -16 -159 -68 -16 -33 -19 -60 -19 -194 0 -102 -3 -154 -10 -150 -6 4 -10 68 -10 160 0 182 -10 215 -72 240 -88 35 -189 8 -221 -59 -9 -20 -17 -43 -17 -51 0 -8 -18 5 -40 29 -24 26 -65 55 -103 72 -53 24 -75 28 -152 29 -78 0 -98 -4 -150 -28 -80 -37 -116 -75 -155 -159 -27 -58 -32 -82 -34 -149 l-1 -80 -30 3 -30 3 -5 160 c-3 108 -10 169 -19 187 -28 54 -147 76 -219 39 -59 -30 -72 -69 -73 -219 l-1 -127 -37 136 c-21 76 -45 149 -55 164 -41 63 -182 86 -270 43 -47 -22 -73 -64 -97 -158 l-12 -45 -16 66 c-21 83 -41 113 -91 139 -55 28 -154 27 -214 -2 -34 -16 -49 -31 -65 -67 -20 -46 -181 -651 -181 -684 0 -34 33 -85 67 -101 46 -22 135 -21 181 3 45 23 63 57 87 166 10 44 21 83 25 88 3 4 14 -28 24 -70 38 -162 76 -203 191 -203 114 0 151 42 191 213 10 43 21 72 25 65 4 -7 15 -49 24 -93 25 -112 45 -149 95 -169 51 -20 108 -20 159 0 50 20 76 73 66 134 l-7 43 35 -7 c22 -4 52 -1 78 8 37 13 46 13 70 0 64 -32 177 -6 194 45 8 27 17 26 63 -4 60 -39 118 -55 206 -55 72 0 90 4 152 34 38 18 81 47 95 63 l25 30 18 -44 c29 -69 106 -96 191 -68 43 15 50 15 90 -1 109 -41 245 4 295 99 14 26 27 47 30 47 3 -1 17 -20 31 -44 21 -34 42 -51 100 -80 l74 -37 160 7 c168 7 205 16 226 55 34 64 30 130 -11 182 -11 14 -20 33 -20 44 0 23 -46 122 -68 147 -13 14 -14 20 -4 23 54 19 122 126 122 193 0 89 -84 191 -189 231 -69 26 -197 34 -266 16z m-1034 -484 c6 -16 8 -51 4 -80 -6 -50 -8 -53 -36 -53 l-29 0 0 73 c0 41 3 77 7 80 16 16 44 5 54 -20z"/>
 </g>
<g id="layer102" fill="#ff4e4e" stroke="none">
 <path d="M2978 1395 c-117 -29 -178 -79 -200 -160 -11 -40 -13 -42 -35 -34 -70 26 -164 -4 -193 -62 -17 -33 -20 -59 -20 -194 0 -102 -3 -154 -10 -150 -6 4 -10 70 -10 164 0 147 -2 160 -22 191 -57 84 -223 77 -268 -11 -11 -21 -20 -44 -20 -52 0 -8 -21 7 -47 33 -65 64 -142 93 -248 94 -149 0 -246 -58 -304 -184 -28 -60 -33 -84 -35 -151 l-1 -80 -30 3 -30 3 -5 162 c-4 143 -7 165 -26 189 -58 78 -221 68 -264 -17 -17 -32 -20 -60 -21 -166 l-1 -128 -37 138 c-21 76 -47 151 -58 165 -45 60 -182 81 -263 40 -49 -25 -80 -74 -101 -158 l-12 -45 -16 66 c-21 85 -43 116 -94 140 -94 42 -229 13 -270 -58 -19 -33 -187 -661 -187 -698 0 -34 39 -85 75 -101 45 -19 115 -18 165 2 50 20 70 56 95 169 10 44 21 83 25 88 3 4 14 -28 24 -70 29 -124 48 -160 98 -183 54 -25 131 -25 184 -1 47 21 70 66 100 194 10 43 21 72 25 65 4 -7 15 -49 24 -93 26 -119 45 -150 101 -169 86 -29 163 -12 202 45 20 29 23 42 17 83 l-6 48 33 -4 c18 -3 52 0 76 8 36 10 49 10 77 -2 69 -29 164 -8 187 40 14 32 19 32 66 2 101 -65 245 -74 360 -22 34 16 75 43 90 61 l28 31 18 -43 c20 -48 33 -58 96 -72 31 -7 55 -6 92 5 44 14 55 14 96 0 118 -41 253 6 297 103 10 23 21 41 24 41 3 0 18 -20 32 -44 21 -34 41 -51 95 -77 l69 -34 160 3 c170 4 214 14 235 53 35 64 31 130 -10 182 -11 14 -20 33 -20 44 0 23 -46 122 -68 147 -13 14 -14 20 -4 23 54 19 122 126 122 193 0 52 -41 131 -90 173 -82 70 -244 102 -362 72z m275 -79 c80 -38 112 -87 112 -170 0 -105 -56 -154 -190 -166 -59 -5 -65 -7 -40 -14 100 -26 135 -49 164 -109 12 -24 21 -63 21 -88 0 -36 4 -46 23 -54 31 -14 46 -78 26 -113 -14 -27 -17 -27 -164 -36 -108 -6 -163 -5 -195 3 -101 27 -157 108 -147 213 3 32 11 66 18 74 10 12 8 22 -9 53 -25 45 -28 94 -7 134 13 25 12 30 -10 64 -17 25 -25 50 -25 80 0 111 95 165 275 159 73 -2 101 -8 148 -30z m-1230 -176 c110 -41 167 -129 175 -266 6 -115 -15 -184 -76 -245 -54 -54 -104 -72 -202 -72 -83 0 -136 15 -187 52 -51 37 -78 81 -99 162 -42 165 25 324 156 369 73 26 165 25 233 0z m-1428 -2 c29 -13 36 -32 86 -247 23 -100 35 -138 41 -125 4 11 26 93 48 184 49 198 50 200 156 200 77 0 119 -12 129 -39 16 -39 175 -656 175 -677 0 -39 -25 -54 -91 -54 -43 0 -64 5 -77 18 -11 11 -34 92 -67 235 -27 119 -52 217 -55 217 -3 0 -29 -98 -59 -217 -39 -160 -58 -223 -73 -235 -15 -13 -38 -18 -85 -18 -96 0 -98 4 -158 257 -27 117 -53 209 -56 205 -4 -4 -28 -101 -54 -217 -26 -116 -55 -218 -63 -227 -12 -14 -31 -18 -83 -18 -75 0 -99 14 -99 56 0 14 38 172 85 352 66 251 90 331 106 345 25 20 152 24 194 5z m826 2 c18 -10 19 -23 19 -174 l0 -164 30 -32 c28 -30 34 -32 75 -27 38 6 46 3 60 -15 23 -35 20 -130 -5 -153 -30 -27 -111 -26 -149 2 -26 20 -29 20 -45 5 -11 -12 -33 -17 -70 -17 -89 0 -86 -11 -86 291 0 260 0 263 22 278 26 18 119 22 149 6z m1010 0 c18 -10 19 -23 19 -181 l0 -171 29 -29 c33 -32 71 -38 95 -13 13 13 16 45 16 190 0 208 3 214 96 214 98 0 94 9 94 -222 0 -129 -4 -215 -12 -242 -36 -119 -184 -168 -301 -99 -32 20 -33 20 -49 -1 -12 -17 -27 -21 -70 -21 -91 0 -88 -11 -88 291 0 260 0 263 22 278 26 18 119 22 149 6z"/>
 <path d="M2985 1291 c-45 -12 -92 -38 -99 -56 -16 -43 -6 -85 31 -125 l36 -41 -26 -27 c-35 -36 -35 -78 -1 -128 21 -30 24 -42 15 -54 -37 -51 -39 -140 -4 -188 39 -54 80 -65 235 -63 78 1 145 4 149 7 5 3 9 16 9 30 0 20 -5 24 -27 24 -46 0 -59 14 -45 45 28 60 5 139 -51 173 -45 29 -114 38 -162 22 -30 -10 -39 -10 -50 1 -26 28 -27 58 -3 82 21 21 37 25 127 30 117 8 165 25 186 68 36 69 5 147 -73 182 -51 22 -191 33 -247 18z m210 -71 c40 -41 42 -75 7 -110 -29 -28 -35 -30 -111 -30 -75 0 -81 2 -101 27 -15 20 -20 38 -18 67 3 35 8 43 38 59 52 27 152 20 185 -13z m-74 -360 c46 -13 69 -47 69 -103 0 -63 -35 -97 -100 -97 -36 0 -52 5 -68 23 -53 56 -43 139 18 169 41 21 35 21 81 8z"/>
 <path d="M3026 1187 c-15 -11 -17 -17 -7 -35 10 -19 20 -22 71 -22 67 0 90 7 90 26 0 38 -113 61 -154 31z"/>
 <path d="M3055 806 c-21 -15 -25 -70 -7 -88 15 -15 69 -15 84 0 31 31 2 102 -42 102 -9 0 -25 -6 -35 -14z"/>
 <path d="M1816 1100 c-113 -36 -168 -161 -137 -312 29 -137 153 -211 303 -179 67 15 111 45 140 96 20 35 23 54 23 145 0 97 -2 109 -28 152 -40 69 -96 99 -194 104 -43 2 -91 -1 -107 -6z m174 -79 c42 -29 60 -77 60 -164 0 -45 -6 -92 -14 -112 -20 -46 -69 -75 -128 -75 -39 0 -54 6 -82 31 -41 36 -56 80 -56 164 0 63 23 129 53 154 39 32 122 33 167 2z"/>
 <path d="M1873 990 c-38 -16 -55 -64 -51 -146 3 -60 8 -77 27 -98 32 -34 98 -36 126 -6 38 43 37 192 -1 231 -23 23 -71 32 -101 19z m68 -77 c6 -16 8 -51 4 -80 -6 -50 -8 -53 -36 -53 l-29 0 0 73 c0 41 3 77 7 80 16 16 44 5 54 -20z"/>
 <path d="M425 1088 c-12 -34 -165 -630 -165 -643 0 -11 13 -15 50 -15 43 0 50 3 55 23 3 12 30 130 60 262 30 132 57 250 60 263 6 27 41 30 49 5 2 -10 33 -138 68 -285 l63 -268 57 0 57 0 10 38 c6 20 38 148 72 285 52 209 64 247 80 247 10 0 20 -8 23 -17 6 -21 126 -543 126 -549 0 -2 20 -4 45 -4 31 0 45 4 45 13 0 12 -148 581 -166 640 -5 15 -16 17 -82 15 l-76 -3 -60 -240 c-54 -210 -63 -240 -80 -240 -18 0 -26 26 -71 216 -29 118 -55 227 -59 242 -6 26 -8 27 -82 27 -51 0 -76 -4 -79 -12z"/>
 <path d="M1302 858 l3 -243 33 -3 c31 -3 32 -2 32 33 0 54 22 55 80 1 27 -25 58 -46 69 -46 40 0 51 11 51 51 l0 39 -42 0 c-48 0 -74 17 -113 69 -24 34 -25 40 -25 188 l0 153 -45 0 -45 0 2 -242z"/>
 <path d="M2312 858 l3 -243 33 -3 c28 -3 32 0 32 22 0 32 10 56 22 56 5 0 27 -15 49 -33 99 -86 234 -65 270 41 9 24 13 100 13 217 l1 180 -47 3 -48 3 0 -166 c0 -177 -7 -207 -52 -239 -47 -33 -124 -8 -168 54 -18 25 -20 44 -20 189 l0 161 -45 0 -45 0 2 -242z"/>
 </g>
<g id="layer103" fill="#fe8f8f" stroke="none">
 <path d="M2978 1395 c-117 -29 -178 -79 -200 -160 -11 -40 -13 -42 -35 -34 -70 26 -164 -4 -193 -62 -17 -33 -20 -59 -20 -194 0 -102 -3 -154 -10 -150 -6 4 -10 70 -10 164 0 147 -2 160 -22 191 -57 84 -223 77 -268 -11 -11 -21 -20 -44 -20 -52 0 -8 -21 7 -47 33 -122 121 -357 128 -483 14 -44 -40 -104 -163 -97 -200 2 -13 0 -27 -4 -30 -12 -7 -11 -71 1 -79 22 -14 8 -26 -27 -23 l-38 3 -5 162 c-4 143 -7 165 -26 189 -58 78 -221 68 -264 -17 -17 -32 -20 -59 -20 -164 0 -78 -4 -124 -10 -120 -5 3 -7 12 -4 19 3 8 0 17 -5 21 -6 3 -9 10 -6 15 3 5 0 21 -7 37 -6 15 -10 32 -9 37 1 4 -3 14 -9 20 -5 7 -7 16 -4 19 3 3 2 11 -2 18 -4 7 -9 24 -10 37 -8 75 -78 124 -184 130 -53 3 -73 -1 -110 -20 -45 -23 -95 -90 -85 -115 2 -7 0 -15 -6 -19 -6 -3 -8 -12 -5 -20 3 -7 1 -16 -5 -20 -6 -3 -8 -13 -4 -21 4 -13 3 -14 -10 -3 -8 7 -12 16 -9 21 3 5 2 14 -2 21 -4 6 -8 24 -9 39 -12 154 -284 194 -362 54 -13 -22 -21 -45 -18 -52 2 -7 0 -15 -6 -19 -6 -3 -8 -12 -5 -20 3 -7 1 -16 -5 -20 -6 -3 -8 -12 -5 -20 3 -7 1 -16 -5 -19 -5 -4 -9 -12 -8 -18 1 -7 -3 -25 -9 -40 -7 -16 -10 -32 -7 -37 3 -5 0 -12 -6 -15 -5 -4 -8 -13 -5 -21 3 -7 1 -16 -5 -20 -6 -3 -8 -12 -5 -20 3 -7 1 -16 -5 -20 -6 -3 -8 -12 -5 -20 3 -7 1 -16 -5 -19 -5 -4 -9 -12 -8 -18 1 -7 -3 -25 -9 -40 -7 -16 -10 -32 -7 -37 3 -5 0 -12 -6 -15 -5 -4 -8 -13 -5 -21 3 -7 1 -16 -5 -20 -6 -3 -8 -12 -5 -20 3 -7 1 -16 -5 -20 -6 -3 -8 -12 -5 -20 3 -7 1 -16 -5 -20 -6 -3 -8 -12 -5 -20 3 -7 1 -16 -4 -19 -17 -10 -11 -58 10 -93 54 -88 234 -82 281 10 11 21 17 43 14 48 -3 5 0 12 6 15 5 4 8 13 5 21 -3 7 -1 16 5 20 6 3 8 12 5 20 -3 7 0 16 5 20 6 3 9 15 6 25 -3 10 1 23 7 29 15 12 27 3 20 -15 -3 -7 -1 -16 5 -19 6 -4 8 -13 5 -20 -3 -8 -1 -17 5 -20 6 -4 8 -13 5 -20 -3 -8 0 -17 5 -21 6 -3 9 -11 6 -16 -3 -5 3 -29 14 -54 16 -36 29 -50 63 -65 54 -25 131 -25 184 -1 33 15 45 28 63 70 12 28 19 56 16 61 -3 5 0 12 6 15 5 4 8 13 5 21 -3 7 -1 16 5 20 6 3 8 12 5 20 -3 7 -1 16 5 20 6 3 8 12 5 20 -3 7 -1 16 3 19 10 5 25 -23 22 -42 -1 -6 3 -14 8 -18 6 -3 8 -12 5 -19 -3 -8 -1 -17 5 -20 6 -4 8 -13 4 -21 -3 -9 0 -21 6 -29 6 -7 8 -15 5 -18 -3 -4 4 -24 15 -46 16 -32 30 -43 67 -56 86 -29 164 -12 202 44 23 34 29 84 12 95 -5 3 -6 13 -3 21 4 11 15 15 37 11 17 -2 50 1 74 9 36 10 49 10 77 -2 69 -29 164 -8 187 40 14 32 19 32 66 2 101 -65 245 -74 360 -22 34 16 75 43 90 61 l28 31 18 -43 c20 -48 33 -58 96 -72 31 -7 55 -6 92 5 44 14 55 14 96 0 118 -41 253 6 297 103 10 23 21 41 24 41 3 0 18 -20 32 -44 21 -34 41 -51 95 -77 l69 -34 160 3 c104 2 170 8 191 17 31 13 72 70 60 83 -3 3 -1 11 5 18 6 8 8 22 4 31 -4 10 -9 26 -10 36 -1 10 -11 31 -23 47 -12 16 -22 37 -22 47 0 23 -46 122 -68 147 -13 14 -14 20 -4 23 54 19 122 126 122 193 0 52 -41 131 -90 173 -82 70 -244 102 -362 72z m229 -60 c112 -33 166 -100 160 -198 -2 -37 -10 -67 -23 -85 -26 -35 -99 -72 -144 -72 -19 0 -42 -5 -50 -10 -12 -8 -10 -10 11 -10 14 0 46 -14 73 -30 55 -35 85 -91 86 -158 0 -35 4 -45 19 -49 43 -11 53 -122 14 -150 -28 -21 -298 -22 -361 -2 -103 34 -162 168 -118 272 12 29 11 36 -5 67 -23 42 -25 108 -4 137 13 19 13 23 -7 48 -26 33 -35 113 -18 155 16 38 60 70 119 86 64 17 188 17 248 -1z m-1150 -208 c52 -27 84 -61 119 -127 15 -28 19 -57 19 -150 0 -108 -2 -118 -29 -167 -50 -90 -120 -126 -247 -127 -75 0 -92 3 -145 29 -109 55 -161 161 -151 308 12 183 111 271 297 264 68 -3 95 -9 137 -30z m-1448 6 c15 -14 31 -64 64 -202 l44 -185 44 180 c55 223 55 224 172 224 87 0 118 -13 131 -57 35 -117 166 -637 166 -661 0 -40 -22 -52 -98 -52 -44 0 -63 5 -74 18 -9 9 -37 113 -64 230 -26 116 -50 212 -53 212 -4 0 -30 -96 -60 -214 -34 -137 -59 -220 -70 -230 -22 -20 -148 -22 -173 -2 -16 12 -63 181 -109 389 -7 31 -15 57 -18 57 -5 0 -27 -88 -87 -358 -9 -40 -23 -79 -31 -87 -10 -11 -37 -15 -87 -15 -81 0 -100 11 -98 58 1 15 39 173 86 352 67 256 90 329 107 343 16 13 40 17 104 17 64 0 87 -4 104 -17z m812 7 c18 -10 19 -23 19 -170 l0 -159 32 -37 c29 -33 34 -35 74 -29 59 9 74 -9 74 -90 0 -71 -11 -89 -60 -100 -39 -9 -83 1 -115 26 -14 11 -25 16 -25 11 0 -30 -111 -42 -148 -16 -22 15 -22 18 -22 276 0 307 -3 298 92 298 33 0 68 -5 79 -10z m1010 0 c18 -10 19 -23 19 -181 l0 -171 31 -29 c37 -35 72 -37 93 -7 13 18 16 55 16 192 0 205 1 206 97 206 51 0 67 -4 84 -21 21 -21 22 -28 17 -218 -4 -168 -8 -203 -25 -241 -49 -110 -173 -149 -289 -90 -21 11 -40 16 -43 11 -22 -32 -112 -41 -149 -15 -22 15 -22 18 -22 276 0 307 -3 298 92 298 33 0 68 -5 79 -10z"/>
 <path d="M2977 1286 c-103 -29 -128 -101 -61 -176 l36 -40 -26 -31 c-33 -39 -33 -73 1 -122 l27 -39 -22 -39 c-43 -75 -19 -165 57 -207 40 -23 46 -24 191 -17 149 8 150 8 150 31 0 19 -5 24 -27 24 -48 0 -56 12 -43 58 27 87 -18 160 -110 182 -39 9 -61 9 -97 1 -52 -14 -67 -6 -78 41 -12 48 18 65 136 73 122 9 174 26 194 66 33 63 2 144 -68 178 -58 28 -191 37 -260 17z m198 -52 c61 -29 70 -113 14 -141 -13 -7 -59 -13 -101 -13 -70 0 -78 2 -97 26 -11 14 -23 34 -26 45 -9 26 15 71 45 86 35 18 125 16 165 -3z m-19 -389 c49 -32 49 -136 1 -168 -44 -29 -106 -25 -139 8 -95 94 26 233 138 160z"/>
 <path d="M3038 1193 c-19 -5 -22 -20 -12 -47 9 -23 126 -23 145 0 30 36 -58 67 -133 47z"/>
 <path d="M3063 810 c-18 -7 -23 -17 -23 -43 0 -40 15 -57 50 -57 14 0 31 5 38 12 13 13 16 57 4 74 -11 17 -44 24 -69 14z"/>
 <path d="M1806 1096 c-92 -34 -129 -101 -130 -231 0 -74 4 -98 23 -138 42 -85 105 -119 221 -119 153 -1 230 80 230 242 0 111 -44 196 -123 237 -43 22 -172 27 -221 9z m184 -74 c41 -30 63 -86 62 -163 0 -128 -35 -179 -125 -187 -71 -6 -109 14 -136 71 -23 48 -28 145 -11 208 24 86 136 125 210 71z"/>
 <path d="M1880 991 c-36 -10 -60 -64 -60 -137 0 -101 47 -149 126 -130 35 9 54 55 54 133 0 72 -25 133 -54 133 -8 0 -20 2 -28 4 -7 2 -24 1 -38 -3z m62 -78 c13 -35 16 -73 6 -79 -4 -3 -8 -16 -8 -30 0 -22 -4 -25 -31 -22 l-31 3 0 67 c0 36 3 71 6 77 13 21 46 12 58 -16z"/>
 <path d="M421 1068 c-17 -56 -161 -614 -161 -626 0 -8 18 -12 49 -12 42 0 50 3 54 23 4 12 31 132 62 267 31 135 58 253 61 263 9 28 44 21 50 -10 3 -16 34 -143 68 -283 l61 -255 57 -3 57 -3 10 38 c6 21 36 142 66 268 31 127 59 238 61 248 4 12 13 17 27 15 21 -3 32 -43 133 -495 l16 -73 44 0 c25 0 44 5 44 11 0 22 -164 635 -173 647 -6 7 -35 12 -78 12 l-68 0 -11 -37 c-6 -21 -35 -130 -63 -243 -46 -180 -54 -205 -72 -205 -17 0 -26 28 -78 243 l-59 242 -73 0 -73 0 -11 -32z"/>
 <path d="M1302 858 l3 -243 33 -3 c30 -3 32 -2 32 31 0 60 22 64 70 13 43 -45 77 -61 111 -51 14 5 19 16 19 46 l0 39 -41 0 c-48 0 -88 25 -118 74 -19 30 -21 49 -21 185 l0 151 -45 0 -45 0 2 -242z"/>
 <path d="M2312 858 l3 -243 33 -3 c31 -3 32 -2 32 33 0 50 20 53 74 11 66 -50 114 -61 177 -41 32 11 56 27 71 48 22 30 23 43 26 235 l3 203 -43 -3 -43 -3 -6 -180 c-3 -99 -6 -181 -7 -182 -58 -72 -141 -69 -206 7 -26 31 -26 33 -26 196 l0 164 -45 0 -45 0 2 -242z"/>
 </g>
<g id="layer104" fill="#fefefe" stroke="none">
 <path d="M3030 1294 c-106 -18 -150 -49 -150 -105 0 -16 14 -46 35 -73 19 -26 35 -50 35 -54 0 -5 -11 -18 -25 -30 -14 -12 -25 -33 -25 -46 0 -13 11 -40 25 -60 29 -42 30 -54 11 -81 -54 -78 -8 -198 85 -225 20 -6 88 -7 167 -4 129 7 132 8 132 30 0 18 -6 23 -32 26 -30 3 -33 6 -30 33 13 111 -3 153 -69 188 -28 15 -49 17 -116 13 -76 -5 -84 -3 -94 15 -5 11 -9 32 -7 47 5 41 56 62 148 62 91 0 140 13 167 42 63 70 18 181 -85 207 -48 12 -140 20 -172 15z m157 -64 c52 -31 58 -98 13 -131 -16 -13 -51 -21 -100 -25 l-76 -7 -32 37 c-36 41 -40 70 -16 104 22 32 48 41 119 41 43 1 69 -5 92 -19z m-21 -394 c45 -45 47 -96 5 -146 -26 -32 -34 -35 -81 -35 -47 0 -55 3 -81 35 -64 76 -18 179 80 180 36 0 49 -6 77 -34z"/>
 <path d="M1836 1099 c-79 -19 -133 -71 -150 -143 -11 -45 -9 -150 4 -197 16 -59 81 -123 140 -139 58 -16 175 -8 218 14 103 53 134 266 55 381 -49 70 -170 109 -267 84z m162 -76 c41 -31 65 -105 59 -185 -7 -112 -59 -173 -147 -173 -95 0 -144 67 -143 196 1 93 27 153 76 175 42 19 121 12 155 -13z"/>
 <path d="M438 1088 c-9 -7 -18 -24 -20 -38 -3 -14 -33 -133 -68 -265 -34 -132 -67 -258 -72 -280 -5 -22 -11 -48 -14 -58 -5 -16 0 -18 42 -15 l49 3 22 95 c13 52 41 176 63 275 23 99 48 187 56 195 30 31 41 -2 150 -470 10 -41 22 -81 27 -88 7 -8 27 -12 56 -10 l46 3 70 277 c39 152 76 283 83 290 10 10 15 9 27 -2 8 -8 43 -139 78 -290 l63 -275 43 -3 c37 -3 42 -1 38 15 -3 10 -36 133 -72 273 -37 140 -74 280 -81 310 -8 30 -17 56 -20 59 -9 9 -119 12 -132 3 -7 -5 -38 -105 -67 -223 -60 -238 -68 -259 -90 -259 -20 0 -29 23 -60 155 -15 61 -38 157 -51 215 -14 57 -30 108 -37 112 -19 12 -112 9 -129 -4z"/>
 <path d="M1307 1093 c-4 -3 -7 -111 -7 -240 l0 -233 35 0 c33 0 35 2 35 35 0 55 24 55 76 1 40 -42 49 -47 82 -44 35 3 37 5 40 41 3 38 3 39 -27 32 -37 -8 -78 12 -120 60 l-31 36 0 159 0 160 -38 0 c-21 0 -42 -3 -45 -7z"/>
 <path d="M2317 1093 c-4 -3 -7 -111 -7 -240 l0 -233 34 0 c32 0 35 3 38 32 4 46 29 47 80 4 96 -82 233 -51 258 60 5 21 10 117 10 212 l0 172 -39 0 -39 0 -3 -167 c-4 -147 -7 -172 -25 -203 -42 -72 -107 -75 -180 -8 l-44 41 0 168 0 169 -38 0 c-21 0 -42 -3 -45 -7z"/>
 </g>

</svg>