<!DOCTYPE svg PUBLIC "-//W3C//DTD SVG 20010904//EN" "http://www.w3.org/TR/2001/REC-SVG-20010904/DTD/svg10.dtd">
<svg version="1.0" xmlns="http://www.w3.org/2000/svg" width="110px" height="110px" viewBox="0 0 1100 1100" preserveAspectRatio="xMidYMid meet">
<g id="layer101" fill="#ffffff" stroke="none">
 <path d="M445 957 c-119 -40 -216 -124 -268 -234 -30 -64 -32 -75 -32 -178 0 -103 2 -114 32 -178 42 -89 121 -168 210 -210 64 -30 74 -32 183 -32 109 0 119 2 183 32 89 42 168 121 210 210 30 64 32 75 32 178 0 103 -2 114 -32 178 -42 89 -121 168 -210 210 -60 28 -80 32 -168 34 -63 2 -115 -2 -140 -10z"/>
 </g>

</svg>