<!DOCTYPE svg PUBLIC "-//W3C//DTD SVG 20010904//EN" "http://www.w3.org/TR/2001/REC-SVG-20010904/DTD/svg10.dtd">
<svg version="1.0" xmlns="http://www.w3.org/2000/svg" width="539px" height="152px" viewBox="0 0 5390 1520" preserveAspectRatio="xMidYMid meet">
<g id="layer101" fill="#7eb559" stroke="none">
 <path d="M943 1204 c-31 -11 -48 -12 -62 -4 -12 6 -99 10 -215 10 -229 0 -250 -6 -285 -76 -20 -43 -21 -58 -21 -364 0 -455 -11 -440 305 -440 129 0 203 4 220 12 35 16 65 76 65 130 l0 44 68 -4 c79 -5 138 18 162 62 17 32 24 33 38 1 38 -82 241 -86 267 -5 6 19 8 20 24 6 9 -8 43 -28 76 -43 114 -53 275 -26 336 56 l23 31 30 -29 c17 -17 58 -43 91 -58 50 -23 73 -28 140 -28 70 0 88 4 141 32 33 17 75 48 92 68 l32 36 0 -126 c0 -142 16 -192 70 -220 62 -32 192 -13 220 32 10 17 10 17 20 0 28 -45 158 -64 220 -32 52 27 60 57 60 226 l0 152 29 -39 c39 -54 58 -69 126 -101 50 -23 73 -28 140 -28 70 0 88 4 141 32 33 17 74 47 90 66 l30 33 18 -43 c13 -32 29 -49 57 -63 45 -24 109 -26 148 -5 25 13 33 12 80 -5 28 -11 68 -20 89 -20 36 0 153 48 166 68 9 14 76 -53 76 -77 0 -59 72 -111 153 -111 69 1 121 30 142 82 15 36 27 48 60 61 50 21 75 66 75 135 0 61 -26 103 -79 126 l-41 19 0 64 c0 57 2 63 20 63 36 0 77 28 90 60 l13 32 13 -31 c10 -23 11 -58 4 -148 -5 -65 -10 -197 -11 -293 -2 -204 4 -227 71 -254 87 -35 193 -8 226 57 15 28 16 60 10 290 -3 152 -11 267 -17 279 -8 15 -6 31 10 68 27 62 26 73 -3 137 -41 88 -129 116 -221 71 -34 -17 -48 -31 -62 -63 l-17 -42 -20 41 c-68 134 -311 109 -389 -39 l-16 -30 -1 28 c-1 74 -59 121 -150 121 -61 0 -112 -22 -132 -57 -8 -14 -15 -79 -18 -185 -3 -98 -9 -162 -15 -162 -6 0 -12 64 -15 162 -5 178 -11 197 -63 225 -70 36 -201 11 -226 -45 -12 -25 -12 -25 -26 -5 -8 11 -38 31 -67 44 -47 21 -68 24 -178 24 -113 0 -129 -2 -170 -24 -59 -31 -88 -54 -117 -93 l-23 -32 0 28 c0 40 -26 83 -63 103 -62 33 -192 14 -220 -33 -5 -10 -13 -7 -31 11 -63 63 -223 49 -256 -23 -11 -25 -11 -25 -25 -5 -8 11 -38 31 -67 44 -47 21 -68 24 -178 24 -116 0 -129 -2 -175 -26 -27 -15 -62 -38 -77 -52 -28 -26 -28 -26 -39 -6 -6 12 -44 37 -85 56 -71 34 -79 35 -157 31 -66 -3 -92 -10 -134 -32 l-51 -28 -20 20 c-44 44 -163 53 -231 17 -17 -8 -39 -32 -50 -53 l-19 -37 -18 37 c-13 28 -29 42 -65 57 -56 24 -98 26 -156 5z m20 -284 c15 -28 27 -56 27 -64 0 -7 -17 -44 -37 -81 l-38 -68 -6 54 c-11 106 -50 139 -164 139 -51 0 -65 3 -65 15 0 12 17 15 93 15 74 0 98 4 122 19 17 11 32 20 35 20 3 0 17 -22 33 -49z m828 -5 c24 -14 52 -25 62 -25 12 0 17 -8 17 -30 0 -23 -4 -30 -20 -30 -11 0 -43 -12 -70 -26 -70 -37 -80 -30 -80 54 0 38 3 72 7 75 12 13 41 7 84 -18z m-910 -277 c-8 -22 -14 -23 -107 -24 l-99 -1 81 6 c51 4 89 12 105 23 13 9 25 17 26 17 1 1 -1 -9 -6 -21z"/>
 </g>
<g id="layer102" fill="#fefefe" stroke="none">
 <path d="M994 1104 c-8 -3 12 -48 52 -118 62 -111 73 -142 55 -161 -4 -6 -32 -54 -60 -107 l-52 -98 48 0 48 0 48 90 c32 59 54 90 65 90 11 0 34 -31 65 -90 l48 -90 41 0 40 0 -25 43 c-66 115 -97 175 -97 190 0 9 28 66 61 127 68 122 68 137 2 125 -38 -6 -41 -9 -86 -101 -36 -72 -52 -95 -65 -92 -10 2 -36 40 -63 92 -50 97 -78 119 -125 100z"/>
 <path d="M1604 1091 c-73 -33 -104 -100 -104 -225 1 -134 50 -214 148 -242 59 -18 115 -13 163 12 22 11 29 22 29 44 0 35 -2 36 -36 13 -38 -24 -116 -23 -151 3 -45 33 -63 79 -63 164 0 96 23 150 73 173 46 22 89 21 137 -3 42 -22 54 -15 44 24 -13 52 -157 75 -240 37z"/>
 <path d="M2095 1091 c-80 -36 -115 -103 -115 -221 0 -117 33 -187 110 -230 37 -20 58 -25 115 -24 79 0 118 16 158 63 25 30 47 105 47 161 l0 30 -167 2 -168 3 -3 40 c-3 52 24 103 69 127 41 22 127 24 192 4 l47 -14 0 28 c0 24 -5 29 -44 39 -71 18 -194 14 -241 -8z m209 -257 c23 -9 21 -81 -4 -122 -22 -36 -54 -52 -103 -52 -44 0 -77 19 -104 59 -25 37 -31 106 -10 114 18 8 202 8 221 1z"/>
 <path d="M2608 1103 c-17 -4 -18 -30 -18 -359 l0 -354 40 0 40 0 0 355 c0 209 -4 355 -9 355 -5 0 -15 2 -23 4 -7 2 -21 2 -30 -1z"/>
 <path d="M2888 1103 c-17 -4 -18 -30 -18 -359 l0 -354 40 0 40 0 0 355 c0 209 -4 355 -9 355 -5 0 -15 2 -23 4 -7 2 -21 2 -30 -1z"/>
 <path d="M3245 1091 c-80 -36 -115 -103 -115 -221 0 -117 33 -187 110 -230 37 -20 58 -25 115 -24 79 0 118 16 158 63 25 30 47 105 47 161 l0 30 -167 2 -168 3 -3 40 c-3 52 24 103 69 127 41 22 127 24 192 4 l47 -14 0 28 c0 24 -5 29 -44 39 -71 18 -194 14 -241 -8z m209 -257 c23 -9 21 -81 -4 -122 -22 -36 -54 -52 -103 -52 -44 0 -77 19 -104 59 -25 37 -31 106 -10 114 18 8 202 8 221 1z"/>
 <path d="M3758 1103 c-17 -4 -18 -24 -18 -244 l0 -239 30 0 c28 0 30 3 30 35 0 50 21 53 76 11 82 -63 160 -71 219 -24 48 38 55 70 55 272 0 175 -1 184 -20 189 -11 3 -29 3 -40 0 -19 -5 -20 -14 -20 -152 0 -168 -9 -210 -51 -245 -39 -33 -76 -33 -124 0 -74 50 -74 51 -75 232 0 91 -4 162 -9 162 -5 0 -15 2 -23 4 -7 2 -21 2 -30 -1z"/>
 <path d="M4411 1094 c-42 -30 -51 -71 -51 -238 0 -143 -1 -156 -19 -166 -11 -5 -29 -10 -40 -10 -17 0 -21 -6 -21 -29 0 -27 3 -30 38 -33 l37 -3 3 -63 3 -63 42 3 42 3 3 63 3 62 59 0 c60 0 60 0 60 30 0 29 -2 30 -44 30 -79 0 -76 -6 -76 165 0 180 7 199 79 199 37 1 41 3 41 27 0 15 -7 30 -16 33 -32 12 -120 6 -143 -10z"/>
 <path d="M4798 1085 c-8 -18 -9 -35 -2 -53 8 -23 15 -27 48 -27 33 0 41 4 48 26 5 16 5 37 -1 52 -9 22 -17 27 -46 27 -28 0 -38 -5 -47 -25z"/>
 <path d="M475 1087 c-3 -7 -4 -154 -3 -327 l3 -315 183 -3 182 -2 0 29 0 30 -132 3 -133 3 0 110 0 110 113 3 112 3 0 29 0 30 -115 0 -116 0 3 123 3 122 133 3 132 3 0 29 0 30 -180 0 c-136 0 -182 -3 -185 -13z"/>
 <path d="M4807 768 c-4 -66 -7 -179 -7 -250 l0 -128 45 0 45 0 0 93 c0 50 -3 163 -7 250 l-6 157 -32 0 -32 0 -6 -122z"/>
 </g>

</svg>