<!DOCTYPE svg PUBLIC "-//W3C//DTD SVG 20010904//EN" "http://www.w3.org/TR/2001/REC-SVG-20010904/DTD/svg10.dtd">
<svg version="1.0" xmlns="http://www.w3.org/2000/svg" width="374px" height="151px" viewBox="0 0 3740 1510" preserveAspectRatio="xMidYMid meet">
<g id="layer101" fill="#7cb457" stroke="none">
 <path d="M690 1206 c-72 -16 -170 -67 -215 -111 -43 -44 -99 -152 -114 -223 -32 -150 18 -329 121 -431 93 -95 270 -147 413 -122 145 25 234 101 235 199 0 47 -30 116 -54 125 -13 5 -11 11 11 33 16 17 29 22 31 15 10 -31 71 -108 100 -128 72 -47 140 -65 237 -61 81 3 97 8 155 39 46 25 74 49 96 81 l31 46 34 -47 c25 -33 53 -56 104 -81 66 -33 75 -35 175 -35 102 0 107 1 170 36 47 25 73 48 95 82 34 52 41 56 50 26 12 -37 67 -90 126 -120 45 -22 72 -29 119 -29 l60 0 0 -65 c0 -84 19 -121 73 -146 55 -25 106 -24 161 3 75 36 76 42 76 453 0 315 -2 358 -17 391 -31 64 -134 95 -203 59 -26 -13 -32 -13 -72 5 -111 50 -266 -10 -326 -126 l-18 -35 -31 45 c-84 118 -267 169 -406 112 -80 -33 -131 -70 -153 -111 -10 -19 -21 -35 -24 -35 -3 1 -17 18 -32 40 -52 75 -168 129 -278 129 -103 1 -234 -62 -274 -130 l-19 -31 -19 44 c-16 37 -28 49 -66 67 -101 46 -243 61 -352 37z m768 -348 l3 -78 -30 0 c-26 0 -30 4 -36 40 -6 36 0 93 12 113 3 5 15 7 26 5 20 -3 22 -10 25 -80z m610 0 l3 -78 -30 0 c-26 0 -30 4 -36 40 -6 36 0 93 12 113 3 5 15 7 26 5 20 -3 22 -10 25 -80z m-1258 62 c0 -5 -14 -10 -31 -10 -17 0 -40 -5 -51 -11 -15 -8 -19 -8 -13 1 15 24 95 41 95 20z m1848 -2 c26 -26 11 -138 -19 -138 -11 0 -20 79 -13 116 7 36 13 41 32 22z m-1928 -273 c16 -9 58 -15 120 -16 l95 -1 -45 -15 c-26 -8 -69 -13 -103 -10 -47 3 -63 9 -85 30 -29 29 -21 35 18 12z"/>
 <path d="M3133 1210 c-49 -11 -81 -36 -103 -80 -24 -47 -26 -110 -4 -152 13 -25 14 -38 5 -67 -17 -58 -25 -531 -10 -565 18 -39 82 -69 149 -70 66 0 113 22 140 67 19 30 20 46 14 282 -4 162 -11 261 -19 281 -11 26 -10 35 6 65 24 46 24 110 -2 160 -15 31 -33 46 -72 65 -56 26 -56 26 -104 14z"/>
 </g>
<g id="layer102" fill="#fdfefd" stroke="none">
 <path d="M670 1087 c-97 -33 -141 -72 -183 -164 -18 -39 -22 -66 -22 -148 0 -89 3 -107 28 -160 36 -78 78 -121 151 -156 73 -35 164 -45 250 -29 87 16 126 41 126 80 0 16 -2 30 -5 30 -2 0 -28 -10 -57 -22 -76 -31 -207 -32 -265 -1 -151 81 -181 328 -54 454 61 61 133 80 219 58 l57 -14 0 -105 0 -105 -72 -3 -73 -3 0 -30 0 -30 123 3 122 3 3 157 3 157 -28 15 c-77 39 -228 46 -323 13z"/>
 <path d="M1344 1101 c-92 -23 -142 -93 -152 -206 -14 -177 76 -285 238 -285 87 0 134 15 174 54 39 40 60 106 60 191 -1 156 -80 244 -224 251 -36 2 -79 -1 -96 -5z m174 -83 c37 -34 52 -80 52 -155 0 -139 -40 -193 -142 -193 -100 0 -142 56 -142 186 0 96 22 147 75 176 45 25 121 18 157 -14z"/>
 <path d="M1954 1101 c-92 -23 -142 -93 -152 -206 -14 -177 76 -285 238 -285 87 0 134 15 174 54 39 40 60 106 60 191 -1 156 -80 244 -224 251 -36 2 -79 -1 -96 -5z m174 -83 c37 -34 52 -80 52 -155 0 -139 -40 -193 -142 -193 -100 0 -142 56 -142 186 0 96 22 147 75 176 45 25 121 18 157 -14z"/>
 <path d="M2523 1089 c-33 -16 -48 -33 -70 -77 -24 -49 -27 -68 -27 -147 0 -49 5 -107 13 -128 41 -120 162 -164 264 -96 72 48 76 42 79 -118 l3 -138 40 0 40 0 0 355 0 355 -32 3 c-29 3 -32 1 -35 -30 -4 -43 -29 -48 -71 -12 -68 57 -134 68 -204 33z m185 -72 c64 -47 72 -67 72 -164 l0 -89 -38 -37 c-106 -104 -222 -44 -225 115 -3 89 9 133 44 168 39 39 99 42 147 7z"/>
 <path d="M3143 1100 c-19 -8 -23 -17 -23 -50 0 -33 4 -42 25 -52 19 -8 31 -8 50 0 21 10 25 19 25 51 0 53 -27 71 -77 51z"/>
 <path d="M3135 878 c-2 -7 -6 -119 -10 -249 l-6 -236 25 -7 c14 -3 37 -4 51 0 l25 6 -7 237 c-3 130 -10 242 -16 249 -5 6 -20 12 -34 12 -13 0 -25 -6 -28 -12z"/>
 </g>

</svg>