<!DOCTYPE svg PUBLIC "-//W3C//DTD SVG 20010904//EN" "http://www.w3.org/TR/2001/REC-SVG-20010904/DTD/svg10.dtd">
<svg version="1.0" xmlns="http://www.w3.org/2000/svg" width="247px" height="247px" viewBox="0 0 2470 2470" preserveAspectRatio="xMidYMid meet">
<g id="layer101" fill="#363636" stroke="none">
 <path d="M0 1235 l0 -1235 1235 0 1235 0 0 1235 0 1235 -1235 0 -1235 0 0 -1235z"/>
 </g>
<g id="layer102" fill="#bfbfbf" stroke="none">
 <path d="M570 2303 c0 -4 9 -37 21 -73 200 -638 230 -742 215 -754 -9 -6 -157 -119 -329 -251 l-314 -240 408 -3 407 -2 19 -63 c179 -581 237 -766 239 -764 1 1 226 727 250 809 5 16 36 18 413 20 l408 3 -314 240 c-172 132 -320 245 -329 251 -13 10 1 64 111 419 69 224 125 409 123 410 -2 2 -149 -109 -328 -246 -179 -137 -330 -248 -337 -246 -7 1 -150 108 -320 237 -365 279 -343 263 -343 253z"/>
 </g>

</svg>