<!DOCTYPE svg PUBLIC "-//W3C//DTD SVG 20010904//EN" "http://www.w3.org/TR/2001/REC-SVG-20010904/DTD/svg10.dtd">
<svg version="1.0" xmlns="http://www.w3.org/2000/svg" width="573px" height="151px" viewBox="0 0 5730 1510" preserveAspectRatio="xMidYMid meet">
<g id="layer101" fill="#7bb356" stroke="none">
 <path d="M2017 1393 c-26 -11 -44 -28 -58 -54 l-19 -39 30 -77 c16 -43 30 -82 30 -86 0 -5 -28 -82 -61 -171 l-61 -162 -57 0 -56 1 -5 160 c-3 106 -10 169 -18 186 -19 36 -72 59 -138 59 -60 0 -104 -18 -128 -51 l-15 -22 -26 21 c-50 40 -122 57 -235 57 -98 -1 -109 -3 -165 -32 -97 -50 -141 -105 -168 -213 l-13 -50 -28 88 c-59 180 -82 202 -216 202 -98 0 -138 -17 -166 -72 -25 -47 -234 -678 -234 -705 0 -91 126 -142 240 -97 51 20 60 39 120 224 l46 145 52 -160 c29 -88 55 -165 59 -171 5 -6 27 -21 50 -33 53 -26 122 -27 171 -2 64 33 77 87 42 179 l-20 52 62 -32 c58 -30 70 -33 158 -33 84 0 101 3 146 27 28 15 65 40 81 57 l30 29 12 -35 c18 -49 62 -73 134 -73 32 0 67 5 78 10 14 8 27 6 50 -6 23 -11 45 -14 83 -10 28 4 90 6 137 5 128 -1 155 16 194 124 14 37 25 56 29 47 3 -8 15 -41 26 -73 18 -48 28 -61 60 -77 48 -24 138 -27 180 -5 33 17 60 61 60 97 0 13 -53 178 -117 368 -89 261 -124 351 -143 372 -47 47 -142 61 -213 31z"/>
 <path d="M2836 1400 c-21 -6 -65 -24 -96 -41 -99 -53 -137 -158 -89 -251 17 -33 19 -46 10 -65 -16 -35 -14 -87 6 -127 14 -30 14 -42 5 -74 -21 -69 -15 -124 21 -194 27 -52 42 -69 87 -96 82 -48 112 -53 277 -46 158 7 196 18 215 58 l10 24 77 -42 c75 -41 77 -41 181 -41 101 0 107 1 170 36 49 26 74 48 99 86 l34 51 32 -46 c23 -34 51 -57 106 -87 73 -39 75 -40 179 -40 101 0 107 1 169 35 43 23 75 49 95 78 l31 43 15 -22 c58 -88 147 -139 243 -139 l57 0 0 -65 c0 -84 19 -121 73 -146 85 -38 184 -15 217 52 19 36 20 61 20 406 0 347 -1 370 -20 400 -10 18 -33 39 -49 48 -36 18 -110 20 -146 3 -21 -9 -36 -8 -79 5 -29 9 -69 17 -89 17 -86 0 -198 -69 -227 -141 -12 -28 -30 -40 -30 -19 0 25 -84 99 -143 126 -55 26 -73 29 -157 29 -87 0 -100 -3 -155 -31 -66 -35 -109 -73 -132 -119 -15 -28 -17 -29 -27 -11 -29 50 -91 105 -149 132 -55 26 -73 29 -157 29 -90 0 -98 -2 -162 -36 l-67 -36 -7 31 c-30 141 -146 224 -319 232 -49 2 -107 -1 -129 -6z m350 -468 c-4 -3 -12 0 -19 7 -9 9 -9 14 3 21 11 7 16 5 18 -6 2 -9 1 -18 -2 -22z m374 -32 c3 -19 4 -54 2 -77 -4 -39 -7 -43 -32 -43 -23 0 -28 5 -33 33 -3 18 -3 54 0 80 5 45 8 48 32 45 21 -2 27 -10 31 -38z m620 0 c3 -19 4 -54 2 -77 -4 -39 -7 -43 -32 -43 -23 0 -28 5 -33 33 -3 18 -3 54 0 80 5 45 8 48 32 45 21 -2 27 -10 31 -38z m588 -36 c2 -45 -1 -64 -12 -74 -18 -14 -24 -4 -28 45 -4 69 1 97 20 93 13 -3 18 -15 20 -64z"/>
 <path d="M5243 1210 c-49 -11 -81 -36 -103 -80 -24 -47 -26 -110 -4 -152 13 -25 14 -39 6 -72 -6 -22 -13 -150 -16 -284 -7 -271 -4 -285 57 -322 44 -28 150 -28 194 0 62 38 65 53 58 328 -3 136 -11 263 -17 283 -8 29 -7 42 6 67 40 76 5 180 -74 220 -47 23 -56 24 -107 12z"/>
 </g>
<g id="layer102" fill="#fdfefd" stroke="none">
 <path d="M2060 1293 c0 -5 14 -43 31 -85 l31 -77 -20 -43 c-23 -47 -172 -447 -172 -460 0 -4 20 -8 44 -8 l44 0 58 166 c32 92 64 174 70 182 24 33 41 1 95 -172 l54 -176 43 0 c23 0 42 3 42 8 0 22 -223 658 -233 664 -16 10 -87 10 -87 1z"/>
 <path d="M2820 1281 c-64 -23 -80 -41 -80 -93 0 -30 8 -47 37 -78 l36 -41 -26 -27 c-35 -36 -35 -81 -2 -120 30 -36 31 -42 5 -84 -44 -72 -15 -166 62 -206 43 -22 51 -23 186 -16 140 7 142 7 142 30 0 20 -5 24 -29 24 -39 0 -46 14 -31 61 37 112 -75 209 -208 179 -48 -11 -55 -10 -67 7 -21 26 -18 67 5 88 15 14 44 20 127 25 124 7 166 24 190 75 21 45 6 103 -38 139 -65 55 -207 72 -309 37z m220 -46 c41 -21 57 -75 34 -114 -21 -36 -37 -41 -131 -41 -67 0 -73 2 -97 31 -38 45 -33 94 12 122 35 21 142 23 182 2z m-20 -390 c62 -56 31 -175 -48 -187 -118 -17 -179 119 -88 195 27 23 107 18 136 -8z"/>
 <path d="M1097 1096 c-83 -31 -120 -85 -133 -194 -8 -71 16 -172 51 -218 40 -53 103 -77 189 -72 118 5 170 55 187 177 4 29 5 59 2 67 -4 11 -38 14 -168 14 -182 0 -178 -1 -165 69 17 95 102 133 234 106 39 -8 72 -15 74 -15 1 0 2 11 2 24 0 32 -40 46 -150 52 -59 3 -97 0 -123 -10z m211 -308 c4 -43 -19 -91 -53 -114 -36 -23 -107 -20 -144 7 -32 24 -39 35 -51 88 -15 60 -11 62 124 59 l121 -3 3 -37z"/>
 <path d="M3436 1100 c-50 -15 -95 -54 -118 -100 -28 -57 -31 -204 -5 -261 42 -93 122 -134 246 -127 64 4 88 10 119 30 58 39 85 103 86 203 1 130 -35 198 -129 241 -53 25 -141 31 -199 14z m184 -85 c38 -36 52 -81 52 -161 -1 -127 -43 -184 -135 -184 -105 0 -151 60 -150 193 1 92 22 141 74 169 49 28 120 20 159 -17z"/>
 <path d="M4056 1100 c-50 -15 -95 -54 -118 -100 -28 -57 -31 -204 -5 -261 42 -93 122 -134 246 -127 64 4 88 10 119 30 58 39 85 103 86 203 1 130 -35 198 -129 241 -53 25 -141 31 -199 14z m184 -85 c38 -36 52 -81 52 -161 -1 -127 -43 -184 -135 -184 -105 0 -151 60 -150 193 1 92 22 141 74 169 49 28 120 20 159 -17z"/>
 <path d="M4623 1089 c-33 -16 -48 -33 -70 -77 -23 -47 -27 -68 -27 -141 0 -95 14 -149 52 -200 51 -68 147 -81 226 -30 27 16 55 28 62 25 10 -4 14 -39 16 -143 l3 -138 40 0 40 0 3 358 2 357 -35 0 c-33 0 -35 -2 -35 -35 0 -30 -3 -35 -23 -35 -13 0 -32 10 -43 21 -26 30 -92 59 -134 59 -19 0 -54 -9 -77 -21z m183 -70 c61 -38 74 -66 74 -167 l0 -89 -45 -42 c-43 -39 -62 -47 -114 -42 -64 6 -103 74 -103 181 0 73 23 143 55 165 31 21 94 19 133 -6z"/>
 <path d="M5248 1099 c-13 -7 -18 -22 -18 -50 0 -34 4 -41 27 -50 45 -17 73 2 73 50 0 53 -38 76 -82 50z"/>
 <path d="M535 1088 c-17 -44 -215 -644 -215 -650 0 -5 20 -8 46 -8 55 0 43 -24 150 319 43 139 85 256 92 259 7 2 18 0 23 -5 6 -6 50 -136 97 -289 l87 -279 43 -3 c23 -2 42 1 42 5 0 5 -49 154 -108 333 l-109 325 -71 3 c-52 2 -74 -1 -77 -10z"/>
 <path d="M1560 860 l0 -240 35 0 c33 0 35 2 35 35 0 54 22 54 73 0 40 -42 49 -46 83 -43 37 3 39 5 39 38 0 34 -1 35 -49 41 -42 4 -55 11 -88 48 l-38 44 0 158 0 159 -45 0 -45 0 0 -240z"/>
 <path d="M5253 878 c-6 -7 -13 -119 -16 -249 l-7 -237 25 -4 c14 -3 37 -3 51 0 l25 5 -6 236 c-4 130 -8 242 -10 249 -3 6 -15 12 -28 12 -14 0 -29 -6 -34 -12z"/>
 </g>

</svg>